<svg xmlns="http://www.w3.org/2000/svg" style="display: none;">

  <!-- Student–Employer Connection -->
  <symbol id="icon-connect" viewBox="0 0 64 64">
    <path d="M20 30l6 6c1 1 3 1 4 0l8-8m10-10 6 2-6 2-10-4-10 4-6-2 16-6 16 6z" stroke-linecap="round" stroke-linejoin="round"/>
    <path d="M14 42c4 4 8 8 10 8s4-2 4-2l4-4m-6-2 6 6m8-6 4 4s2 2 4 0c2-2 6-6 10-10" stroke-linecap="round" stroke-linejoin="round"/>
  </symbol>

  <!-- Job Search / Resume Icon -->
  <symbol id="icon-search" viewBox="0 0 64 64">
    <rect x="12" y="8" width="28" height="40" rx="2" ry="2" stroke-linecap="round" stroke-linejoin="round"/>
    <path d="M20 16h12M20 22h12M20 28h12" stroke-linecap="round"/>
    <circle cx="44" cy="40" r="8"/>
    <line x1="49" y1="45" x2="56" y2="52" stroke-linecap="round"/>
  </symbol>

  <!-- Education + Career Icon -->
  <symbol id="icon-jobs" viewBox="0 0 64 64">
    <path d="M32 10 56 20 32 30 8 20 32 10z" stroke-linecap="round" stroke-linejoin="round"/>
    <path d="M20 26v8c0 4 5 8 12 8s12-4 12-8v-8" stroke-linecap="round" stroke-linejoin="round"/>
    <rect x="16" y="42" width="32" height="14" rx="2" ry="2" stroke-linecap="round" stroke-linejoin="round"/>
    <path d="M24 42v-4h16v4" stroke-linecap="round"/>
  </symbol>

  <!-- Career Tips (Lightbulb) -->
  <symbol id="icon-careertips" viewBox="0 0 64 64">
    <path d="M32 8c-8 0-14 6-14 14 0 6 4 10 7 13v5h14v-5c3-3 7-7 7-13 0-8-6-14-14-14z" stroke-linecap="round" stroke-linejoin="round"/>
    <path d="M26 48h12m-10 4h8m-6 4h4" stroke-linecap="round"/>
  </symbol>

  <!-- Internship Icon -->
  <symbol id="icon-internship" viewBox="0 0 64 64">
    <circle cx="32" cy="18" r="6" stroke-linecap="round" stroke-linejoin="round"/>
    <path d="M20 38v-4c0-4 3-8 12-8s12 4 12 8v4" stroke-linecap="round" stroke-linejoin="round"/>
    <rect x="18" y="38" width="28" height="14" rx="2" ry="2" stroke-linecap="round" stroke-linejoin="round"/>
    <path d="M26 38v-4h12v4" stroke-linecap="round" stroke-linejoin="round"/>
  </symbol>

</svg>